<svg id="Logo" xmlns="http://www.w3.org/2000/svg" viewBox="0 0 2560 1106"><defs><style>.cls-1{fill:#fff;}</style></defs><path class="cls-1" d="M580.76,297.05v18.66q0,122.28,0,244.56c0,4.62.16,9.24-.14,13.84-.92,13.85-6.16,19.61-20.2,19.74q-61.51.55-123,0c-13.37-.1-18.23-5.55-19-18.86-.23-4.09-.09-8.2-.09-12.31V69c0-29.16,1.93-31,31.75-31,36.39,0,72.8.49,109.18-.25,14.11-.28,22.48,5.22,29.75,17,50.64,82,101.83,163.61,152.87,245.34,1,1.67,2.33,3.19,6.15,4.6V288.51q0-110,0-219.95c0-27.5,3.2-30.61,31.1-30.64q51.51,0,103,0a100.82,100.82,0,0,1,13.81.5c8.06,1.12,13,5.86,13.68,14.16.39,4.59.36,9.22.36,13.83q0,249.16,0,498.34c0,26.62-2.61,29.26-28.8,29.29-36.91,0-73.84-.6-110.73.3-14.9.36-23.63-5.34-30.67-18-31.44-56.4-63.47-112.47-95.32-168.64q-28.05-49.49-56.21-98.92C586.59,305.9,584.62,303.1,580.76,297.05Z"/><path class="cls-1" d="M40,738.52q0-125.37,0-250.74c0-4.62-.15-9.24.13-13.84.78-13.11,4.71-16.91,18.1-17.65,3.57-.2,7.17-.09,10.76-.09H364.35c24.36.11,28.61,4.28,28.68,28.62q.12,43.83,0,87.68c-.08,24-4.08,28-27.49,28q-71.52.08-143,0c-3.59,0-7.17.07-10.76.09-6.27,0-9.51,3.18-9.52,9.45q0,23.07,0,46.14c0,6.18,3.2,9.48,9.43,9.66,4.1.11,8.2.2,12.3.21,37.94,0,75.88-.07,113.82,0,25.89.07,30.29,4.51,30.4,30.56.11,28.2,0,56.4,0,84.6a79.21,79.21,0,0,1-.79,13.79c-1.82,10.13-5.89,14.14-16.13,15.67a116.92,116.92,0,0,1-16.86.84q-55.37.1-110.74,0c-3.59,0-7.18.08-10.77.16-6.69.16-10.64,3.24-10.65,10.28q-.06,23.07,0,46.14c0,6.32,3.39,9.32,9.61,9.35,4.1,0,8.2.08,12.3.08q72.28,0,144.58,0c19.87,0,24.22,4.39,24.31,24.55q.22,46.9,0,93.83c-.11,19.66-5.15,25.09-24.42,25.12q-153,.24-306.08,0c-18.78,0-22.39-3.87-22.41-22.73Q40,868.51,40,738.52Z"/><path class="cls-1" d="M1711.41,471.56H1959c4.1,0,8.2-.07,12.3,0,16.16.4,19,3,19.12,18.82.17,27.68.13,55.37,0,83.05-.07,17.87-2.69,20.68-20.4,20.72-59.46.14-118.93.06-178.39.07-8.2,0-16.4.14-24.6,0-7-.09-10.44,3.17-10.35,10.21.06,4.1,0,8.2,0,12.3q0,182.27,0,364.52c0,4.61.08,9.23,0,13.84-.33,15.2-2.59,17.64-18.16,17.74q-45.36.27-90.73,0c-14.66-.09-18-3.41-19-17.85-.34-5.1-.18-10.25-.18-15.37q0-180.72,0-361.44c0-26.79-.57-23.94-24.7-24q-70.76-.07-141.49,0c-4.1,0-8.21.13-12.3-.08-13.36-.7-16.21-3.4-16.43-16.67-.25-15.88-.08-31.78-.07-47.67,0-14.36-.23-28.72.12-43.07.27-11.5,3.2-14.26,14.72-15.05,4.6-.31,9.23-.14,13.84-.14Z"/><path class="cls-1" d="M2476,879.69c1.75,2.6,4.53,6.82,7.41,11,24.37,35.27,34.87,74.88,36.32,117.19.51,14.86.31,29.75,0,44.61-.26,11.08-3.83,15.37-14.6,15.53q-46.14.68-92.28,0c-10.84-.15-14.67-4.71-15.1-17.09-.57-16.39.86-32.92-.74-49.18-1.43-14.6-3.88-29.69-9.29-43.19-10-24.93-29.31-40.2-56.26-44.8-2.39-.41-4.9-.06-8.6-.06-.35,5.76-.88,10.74-.91,15.73-.1,21.53.12,43.07-.12,64.6-.22,19.92-3.87,23.76-23.14,24q-35.37.42-70.75,0c-17.88-.21-21.43-3.86-21.45-22q-.12-176.89,0-353.8a53.83,53.83,0,0,1,.81-10.7c1.14-5.55,4.45-9.13,10.58-9.22,3.58-.05,7.17-.15,10.76-.15,59,0,117.92-.26,176.88.08,42.93.25,74.8,20.32,94,58.13,7.74,15.22,12.68,32.65,15.11,49.61,5,34.77,4.6,69.89-10.33,102.63C2497.12,848.24,2486.57,862.29,2476,879.69Zm-154-115.81h-.07c0,9.74-.22,19.48.06,29.22.35,12.07,1.61,13.34,13.22,13.7,8.19.25,16.4.13,24.6,0,25.57-.28,41.08-15.05,42.64-40.52,1.46-24-14.55-41.87-38.41-42.62-10.24-.33-20.5.09-30.75-.1-7.71-.14-11.36,3.39-11.3,11.06C2322,744.4,2321.94,754.14,2321.94,763.88Z"/><path class="cls-1" d="M1140.12,200.62c108.32-.16,206.55,83.84,206.19,204.1-.34,115.38-90,204.29-208.19,203.53-121-.78-206.21-94.11-205.41-204.73C933.59,281.54,1033.6,199.74,1140.12,200.62Zm-.38,115.85c-44.17-3.09-90.09,34.94-90.17,87.34-.09,57.56,48.59,89.4,90.37,89.47,44.56.08,89-39.07,89.22-89C1229.33,356.79,1185.72,313.07,1139.74,316.47Z"/><path class="cls-1" d="M1781.32,819.51C1778.57,717.79,1864,616.1,1988.11,616.3c114.36.18,206.08,92.24,205.74,204.86-.3,98.27-76.87,202.26-206.62,202.33S1778.28,918,1781.32,819.51Zm116.42-1.24c-3.45,49.38,42.58,89.67,87.18,90.67,52.69,1.18,92.13-44.89,92.65-87.46.54-44.21-37.24-89.76-89.51-90.25C1936,730.74,1895.23,775.75,1897.74,818.27Z"/><path class="cls-1" d="M1553.46,1012.94c-13.32,0-26.66-.48-40,.15-10.46.49-16.15-4-19.34-13.58-3.88-11.65-8.81-23-12.58-34.64-2.63-8.15-7.51-11.26-15.89-11.2q-47.64.36-95.29,0c-9.17-.09-14.11,3.88-17,12.25-4,11.63-8.62,23-12.79,34.57-3.17,8.8-8.81,12.78-18.56,12.62-26.63-.45-53.28,0-79.92-.21-16.67-.13-21.36-6.32-15.77-22.26,9.64-27.54,20.09-54.79,30.25-82.15Q1305.82,776,1355,643.53q2.14-5.76,4.47-11.45c2.6-6.37,7.36-9.61,14.28-9.61q43.8,0,87.61,0c9.3,0,13.36,6.24,16.2,13.9,7.47,20.16,15,40.3,22.47,60.47q53.28,144,106.53,288.11c1.06,2.88,2.37,5.69,3.25,8.62,3.82,12.77-.09,18.76-13.32,19.17-14.33.45-28.68.11-43,.11ZM1396.3,851.81c15.74,1.43,28.54,2.55,42.8-.89-7.26-18.66-12.78-36.59-22.13-56.54C1409.49,815.17,1403.33,832.3,1396.3,851.81Z"/><path class="cls-1" d="M1125.22,837.52q14.44-38.74,28.91-77.48,22.66-60.46,45.43-120.89c6.06-16,7-16.67,23.2-16.75q36.91-.2,73.84,0c19.73.11,24.18,6,17.51,24.52-14.76,41-30,81.79-45.11,122.64-27.06,73-54.32,146-81.27,219.06-10.77,29.21-11.08,24-35,24.28-20.51.25-41,.07-61.54.05-22.45,0-22.42,0-30.5-21.83q-25.1-67.75-50.27-135.47-38.15-103.08-76.22-206.2c-8.29-22.49-5-27,19.53-27.08q35.38-.09,70.77,0c16.39.08,17.78,1.09,23.49,16.43q34.83,93.66,69.57,187.35c1.4,3.77,3,7.45,4.55,11.17Z"/><path class="cls-1" d="M667.38,817.66V647c0-4.1,0-8.2.15-12.3.19-7.4,4.34-11.22,11.4-12a119.67,119.67,0,0,1,12.28-.37q99.15,0,198.31,0a100.53,100.53,0,0,1,12.28.41c7,.86,11.39,4.85,11.44,12.1.19,24.08.38,48.17,0,72.25-.16,9.09-4.13,12.31-13.61,13.2-4.07.39-8.2.19-12.3.19-30.23,0-60.46-.07-90.69.05-15,.06-15.36.61-15.57,15.69-.08,5.64-.06,11.28,0,16.91.16,16.2.47,16.63,16.15,16.7,24.08.11,48.17,0,72.25,0,27.29,0,27.92.63,28,28.71,0,16.4.26,32.81-.13,49.2-.35,15-4.33,19.12-19.5,19.36-25.1.39-50.21.13-75.32.17-4.1,0-8.2.08-12.29.25-5.38.22-8.81,2.86-8.91,8.45-.17,10.25-.21,20.5,0,30.74.15,6.78,5,8.2,10.63,8.21q16.92,0,33.82.07c22,0,44.07-.14,66.11.08,18.68.19,21.55,3.12,21.63,21.28.09,20,.21,40-.07,60-.2,13.26-3.19,16.42-16.45,16.45q-106.84.25-213.68,0c-13.75,0-15.8-2.7-15.82-18.35Q667.28,906.07,667.38,817.66Z"/><path class="cls-1" d="M418.13,817.31V648.11c0-3.59-.12-7.19.07-10.77.6-10.9,3.16-14.51,13.45-14.67q43.05-.69,86.12,0c9.15.14,12.77,4.32,13.73,13.32a130.08,130.08,0,0,1,.26,13.83q0,123.06,0,246.12c0,4.61,0,9.23.22,13.83.22,4.87,3,7.46,7.82,7.72,3.58.2,7.17.19,10.76.19,27.68,0,55.37-.1,83,.07,16.13.09,19.85,3.58,20.22,19.89q.63,27.68,0,55.37c-.36,16.39-4,19.84-20.15,19.87q-98.44.14-196.87,0c-16.62,0-18.63-2.09-18.66-18.68Q418,905.76,418.13,817.31Z"/></svg>