<svg xmlns="http://www.w3.org/2000/svg" xml:space="preserve" id="svg2" x="0" y="0" version="1.1" viewBox="0 0 1974.5 310.1"><style>.st0{fill:#fff}</style><g id="g10" transform="matrix(1.33333 0 0 -1.33333 0 310.147)"><g id="g12" transform="scale(.1)"><path id="path14" d="M3748.3 1624.5c-238.4 0-360.3-187.7-360.3-470.4 0-267.3 131.7-467.8 360.3-467.8 258.4 0 355.3 236.5 355.3 467.8-.1 241.5-121.9 470.4-355.3 470.4m-633.6 701.6H3398v-678.5h5c77 128.5 238.5 208.2 382.6 208.2 404.9 0 601.3-318.8 601.3-707 0-357.2-173.9-693.9-554.1-693.9-173.9 0-360.3 43.6-444.8 218.4h-4.9V490.8h-268.4z" class="st0"/><path id="path16" d="M5368.9 938.1c0-185-193.8-251.9-318-251.9-99.4 0-261 38.7-261 169.7 0 154.3 109.4 200.6 231.2 221.2 124.2 23.1 260.9 20.5 347.9 79.6zm1212.2 917.7c-169 0-315.6-89.9-400.1-236.6l-5 5.2v195.3h-268.4V688c-161.5-1.8-176.6-1.8-188.9-1.8-52.2 0-67.1 28.3-67.1 100.3v683.8c0 280.1-263.4 385.6-514.4 385.6-283.3 0-564-100.2-583.8-442.2h283.2c12.5 144 124.2 210.8 283.2 210.8 114.3 0 265.9-28.4 265.9-180 0-172.2-181.4-149.1-385.1-187.7-238.5-28.2-494.4-82.3-494.4-413.7 0-259.7 208.7-388.1 439.7-388.1 151.6 0 333 48.8 444.8 161.7C5413 496 5495.1 455 5609.3 455c47.2 0 136.6 17.9 579.8 33.4v2.6h1.8v783.9c0 195.4 121.8 349.7 310.6 349.7 166.5 0 246-90 251-298.2V490.9h283.4v912.5c.5 298.1-176 452.4-454.3 452.4" class="st0"/><path id="path18" d="M7860.9 686.1c253.4 0 360.3 239.1 360.3 470.5 0 292.9-136.6 467.8-355.4 467.8-265.9 0-360.3-244.2-360.3-483.2 0-228.8 109.3-455 355.4-455.1m633.6-195.2h-268.4v179.9h-4.9c-74.5-151.7-236.1-215.9-397.6-215.9-404.9 0-601.3 311-601.3 709.4 0 480.7 275.8 691.4 556.6 691.4 161.4 0 340.3-61.7 427.3-208.2h5V2326h283.2z" class="st0"/><path id="path20" d="M9620.1 1375c-22.4 161.9-136.7 249.4-293.2 249.4-146.7 0-352.9-79.7-352.9-483.3 0-221.1 94.4-455 340.4-455 164 0 278.2 113.2 305.6 303.5h283.2c-52.2-344.4-258.4-534.7-588.8-534.7-402.5 0-623.7 295.5-623.7 686.2 0 401 211.2 714.6 633.6 714.6 298.2 0 551.7-154.2 578.9-480.7h-283.1" class="st0"/><path id="path22" d="M10877.6 938.1c0-185-193.8-251.9-318.1-251.9-99.3 0-260.8 38.7-260.8 169.7 0 154.3 109.4 200.6 231 221.2 124.3 23.1 261 20.5 347.9 79.6zm1973 917.7c-186.4 0-308.1-84.9-402.5-221.1-57.2 151.6-203.8 221.1-360.4 221.1-203.7 0-310.6-89.9-395-221.1h-7.5v185h-268.5V688c-161.5-1.8-176.5-1.8-189-1.8-52.1 0-67 28.3-67 100.3v683.8c0 280.1-263.3 385.6-514.4 385.6-283.2 0-564-100.2-583.9-442.2h283.3c12.4 144 124.3 210.8 283.3 210.8 114.3 0 265.8-28.4 265.8-180 0-172.2-181.4-149.1-385.1-187.7-238.6-28.2-494.5-82.3-494.5-413.7 0-259.7 208.7-388.1 439.8-388.1 151.6 0 332.9 48.8 444.8 161.7 22.3-120.7 104.3-161.7 218.7-161.7 47.1 0 136.6 17.9 575.7 33.4v2.6h5.8v789c0 221 134.2 344.5 280.8 344.5 171.4 0 226.1-97.6 226.1-280.3V490.9h283.2v778.8c0 223.7 82 354.7 273.4 354.7 221.1 0 233.5-146.5 233.5-357.4V490.9h283.3v917.6c.1 323.9-158.8 447.3-429.5 447.3" class="st0"/><path id="path24" d="M14170 1624.5c-238.5 0-360.3-187.7-360.3-470.4 0-267.3 131.7-467.8 360.3-467.8 258.4 0 355.4 236.5 355.4 467.8 0 241.5-122 470.4-355.4 470.4m-633.6 195.3h268.4v-179.9h5c79.5 151.6 233.5 215.9 397.5 215.9 405 0 601.3-318.8 601.3-707 0-357.2-173.9-693.9-554-693.9-164 0-340.5 61.7-429.9 208.1h-5V0h-283.3v1819.8" class="st0"/><path id="path26" d="M2124.5 494.8H0l992.1 1831.3h2124.5z" style="fill:#6399a8"/></g></g></svg>