<?xml version="1.0" encoding="utf-8"?>
<!-- Generator: Adobe Illustrator 26.0.3, SVG Export Plug-In . SVG Version: 6.00 Build 0)  -->
<svg version="1.1" id="Calque_1" xmlns="http://www.w3.org/2000/svg" xmlns:xlink="http://www.w3.org/1999/xlink" x="0px" y="0px"
	 viewBox="0 0 2500 603" style="enable-background:new 0 0 2500 603;" xml:space="preserve">
<style type="text/css">
	.st0{fill-rule:evenodd;clip-rule:evenodd;fill:#FFFFFF;}
</style>
<path class="st0" d="M1062.4,592V189.5h-2.6L897.9,592h-61.8L673.8,189.5h-2.6V592h-75.9V45.2h96.4l173.8,435.8h3l173.4-435.7h96.8
	V592L1062.4,592L1062.4,592z M1558.5,592h-77.1v-67.4h-1.8c-21.6,47.7-61.4,74.6-121.3,74.6c-85.2,0-137.4-56.4-137.4-147.8V193.3
	h80.4v242.2c0,60.6,28.3,93.2,83.7,93.2c58.1,0,93.1-40.9,93.1-103.1V193.3h80.4L1558.5,592L1558.5,592z M1778.8,186.1
	c91.2,0,150.4,51.6,153,125.1h-75.6c-4.5-38.6-32.4-62.9-77.4-62.9c-43.6,0-72.6,21.6-72.6,53.4c0,25,17.9,42,60.3,51.9l63.6,14.8
	c80,19,110.5,50.8,110.5,108.4c0,72.8-66.6,122.8-158.9,122.8c-97.9,0-156.7-48.9-164.1-124.7h79.6c7.4,41.7,35.4,62.1,84.5,62.1
	c48.4,0,78.2-20.5,78.2-53c0-25.8-14.5-40.9-57.3-50.8L1739,418c-74.4-17.4-111.3-53.8-111.3-111.8
	C1627.7,235,1688.7,186.1,1778.8,186.1L1778.8,186.1z M1996.4,88c0-26.2,20.9-47,46.5-47c25.7,0,46.2,20.9,46.2,47
	c0,25.7-20.5,47-46.2,47c-12.9-0.1-23.9-4.7-32.9-13.9C2001,111.9,1996.5,100.9,1996.4,88L1996.4,88z M2002.8,193.3h80.4V592h-80.4
	V193.3z M2422.6,330.5c-8.2-42.4-39.5-76.2-91.9-76.2c-62.2,0-103.1,52.7-103.1,138.3c0,87.6,41.3,138.3,103.8,138.3
	c49.5,0,81.9-27.7,91.2-73.9h77.4c-8.6,84.9-75.2,142.5-169.3,142.5c-112,0-185-78.1-185-206.9c0-126.6,72.9-206.5,184.2-206.5
	c100.9,0,162.3,66,169.3,144.4H2422.6L2422.6,330.5z M349.4,98.5c-20.8,24.9-53.8,44.6-86.8,41.7c-4.3-33.6,12.2-69.4,30.9-91.3
	C314.3,23.2,350.2,5,379.6,3.5C383.2,38.6,369.6,72.9,349.4,98.5L349.4,98.5z M379.2,146.8c18.6,1.5,72.3,7.3,106.6,59
	c-2.9,2.2-63.7,37.9-63,113c0.7,89.7,77.3,119.6,78,120.3c-0.7,2.2-12.1,42.3-40,83.8c-24.3,36.5-49.4,72.2-89.4,72.9
	c-38.6,0.7-51.5-23.3-95.9-23.3c-44.4,0-58.7,22.6-95.2,24.1c-38.6,1.4-67.9-38.7-92.3-75.1C37.9,447.8,0,313.7,51.5,223.3
	c25-45.2,70.8-73.6,120.2-74.4c37.9-0.7,73,25.5,95.9,25.5C290.5,174.4,331.3,143.8,379.2,146.8L379.2,146.8z"/>
</svg>
