<?xml version="1.0" encoding="utf-8"?>
<!-- Generator: Adobe Illustrator 26.0.3, SVG Export Plug-In . SVG Version: 6.00 Build 0)  -->
<svg version="1.1" id="Calque_1" xmlns="http://www.w3.org/2000/svg" xmlns:xlink="http://www.w3.org/1999/xlink" x="0px" y="0px"
	 viewBox="0 0 2500 478" style="enable-background:new 0 0 2500 478;" xml:space="preserve">
<style type="text/css">
	.st0{fill:#FFFFFF;}
	.st1{fill-rule:evenodd;clip-rule:evenodd;fill:#40AB5D;}
	.st2{fill-rule:evenodd;clip-rule:evenodd;fill:url(#SVGID_1_);}
	.st3{fill-rule:evenodd;clip-rule:evenodd;fill:url(#SVGID_00000158725351196177009040000012764103243529542319_);}
	.st4{fill-rule:evenodd;clip-rule:evenodd;fill:url(#SVGID_00000020367257547328430230000007915964882281443515_);}
	.st5{fill-rule:evenodd;clip-rule:evenodd;fill:url(#SVGID_00000083056433966033459800000005469939382775935894_);}
	.st6{fill-rule:evenodd;clip-rule:evenodd;fill:url(#SVGID_00000114056632993075441950000010683573478346115999_);}
	.st7{fill-rule:evenodd;clip-rule:evenodd;fill:url(#SVGID_00000047780782675209272430000016668213300769026691_);}
	.st8{fill-rule:evenodd;clip-rule:evenodd;fill:url(#SVGID_00000146496521807178156860000005405753184000926867_);}
	.st9{fill-rule:evenodd;clip-rule:evenodd;fill:url(#SVGID_00000021098185569768570310000017165289992843409039_);}
	.st10{fill-rule:evenodd;clip-rule:evenodd;fill:url(#SVGID_00000049197205179672159590000006002557562016616076_);}
</style>
<path class="st0" d="M585.2,317.2c0,100.3,61.8,160.3,153.5,160.3c45.8,0,84.2-12.8,105.8-46.2v46.2h83.8V0h-87v203
	c-19.8-33.5-56.2-48.5-102-48.5C649.8,154.2,585.2,215.5,585.2,317.2z M844,317.2c0,57.2-39,93-85.7,93c-48.5,0-85.8-35.8-85.8-93
	c0-58.2,37.5-94.8,85.8-94.8C805,222.5,844,259.5,844,317.2z M1199,354.2c-10,37-35.2,55.5-75,55.5c-46.2,0-84.2-28-85.2-77.5H1258
	c2.8-12.2,4-25.2,4-39.5c0-88.8-60.5-138.8-149.8-138.8c-95.2,0-160.7,67.8-160.7,159.8c0,102.5,72.2,164,172.2,164
	c75.5,0,126.8-31.5,149.2-94.2L1199,354.2z M1038.8,274.2c8.2-35.8,38-56.7,73.8-56.7c39,0,65.5,21,65.5,54l-0.5,2.7H1038.8z
	 M1521.8,354.2c-10,37-35.2,55.5-75,55.5c-46.2,0-84.2-28-85.2-77.5h219.2c2.7-12.2,4-25.2,4-39.5c0-88.8-60.5-138.8-149.8-138.8
	c-95.2,0-160.8,67.8-160.8,159.8c0,102.5,72.3,164,172.3,164c75.5,0,126.8-31.5,149.2-94.2L1521.8,354.2z M1361.5,274.2
	c8.2-35.8,38-56.7,73.8-56.7c39,0,65.5,21,65.5,54l-0.5,2.7H1361.5z M1891.8,478v-78.8H1709l177.8-173v-72h-281.2v75h171.8L1600,403
	v75H1891.8z M2146,354.2c-10,37-35.2,55.5-75,55.5c-46.2,0-84.2-28-85.2-77.5H2205c2.8-12.2,4-25.2,4-39.5
	c0-88.8-60.5-138.8-149.8-138.8c-95.2,0-160.8,67.8-160.8,159.8c0,102.5,72.2,164,172.2,164c75.5,0,126.8-31.5,149.2-94.2
	L2146,354.2z M1985.8,274.2c8.2-35.8,38-56.7,73.8-56.7c39,0,65.5,21,65.5,54l-0.5,2.7H1985.8z"/>
<g>
	<path class="st1" d="M388.8,154.2H496V217H388.8V154.2z"/>
	
		<linearGradient id="SVGID_1_" gradientUnits="userSpaceOnUse" x1="-134.3946" y1="823.0014" x2="-134.6156" y2="808.9794" gradientTransform="matrix(4.5795 0 0 4.5795 1058.338 -3464.3936)">
		<stop  offset="0" style="stop-color:#358C7B"/>
		<stop  offset="0.526" style="stop-color:#33A65E"/>
	</linearGradient>
	<path class="st2" d="M388.8,241.2H496V304H388.8V241.2z"/>
	
		<linearGradient id="SVGID_00000128448095107995741890000007567663856319231661_" gradientUnits="userSpaceOnUse" x1="-146.5721" y1="841.1784" x2="-122.4367" y2="828.881" gradientTransform="matrix(4.5795 0 0 4.5795 1058.338 -3464.3936)">
		<stop  offset="0" style="stop-color:#222B90"/>
		<stop  offset="1" style="stop-color:#367B99"/>
	</linearGradient>
	<path style="fill-rule:evenodd;clip-rule:evenodd;fill:url(#SVGID_00000128448095107995741890000007567663856319231661_);" d="
		M388.8,328.2H496V391H388.8V328.2z"/>
	
		<linearGradient id="SVGID_00000134211698816229121310000013994037830820235964_" gradientUnits="userSpaceOnUse" x1="-231.1034" y1="854.0274" x2="-207.6838" y2="854.0274" gradientTransform="matrix(4.5795 0 0 4.5795 1058.338 -3464.3936)">
		<stop  offset="0" style="stop-color:#FF9900"/>
		<stop  offset="1" style="stop-color:#FF8000"/>
	</linearGradient>
	<path style="fill-rule:evenodd;clip-rule:evenodd;fill:url(#SVGID_00000134211698816229121310000013994037830820235964_);" d="
		M0,415.2h107.2V478H0V415.2z"/>
	
		<linearGradient id="SVGID_00000085237690498610305460000012495221394841251006_" gradientUnits="userSpaceOnUse" x1="-202.7994" y1="854.0274" x2="-179.3799" y2="854.0274" gradientTransform="matrix(4.5795 0 0 4.5795 1058.338 -3464.3936)">
		<stop  offset="0" style="stop-color:#FF8000"/>
		<stop  offset="1" style="stop-color:#CC1953"/>
	</linearGradient>
	<path style="fill-rule:evenodd;clip-rule:evenodd;fill:url(#SVGID_00000085237690498610305460000012495221394841251006_);" d="
		M129.5,415.2h107.2V478H129.5L129.5,415.2z"/>
	
		<linearGradient id="SVGID_00000143619451456690157750000007242892769569201573_" gradientUnits="userSpaceOnUse" x1="-174.4924" y1="854.0274" x2="-151.0728" y2="854.0274" gradientTransform="matrix(4.5795 0 0 4.5795 1058.338 -3464.3936)">
		<stop  offset="0" style="stop-color:#CC1953"/>
		<stop  offset="1" style="stop-color:#241284"/>
	</linearGradient>
	<path style="fill-rule:evenodd;clip-rule:evenodd;fill:url(#SVGID_00000143619451456690157750000007242892769569201573_);" d="
		M259.2,415.2h107.2V478H259.2V415.2z"/>
	
		<linearGradient id="SVGID_00000041297285887904169880000017488032085482367651_" gradientUnits="userSpaceOnUse" x1="-146.2142" y1="854.0274" x2="-122.7946" y2="854.0274" gradientTransform="matrix(4.5795 0 0 4.5795 1058.338 -3464.3936)">
		<stop  offset="0" style="stop-color:#222B90"/>
		<stop  offset="1" style="stop-color:#3559A6"/>
	</linearGradient>
	<path style="fill-rule:evenodd;clip-rule:evenodd;fill:url(#SVGID_00000041297285887904169880000017488032085482367651_);" d="
		M388.8,415.2H496V478H388.8V415.2z"/>
	
		<linearGradient id="SVGID_00000053530813785212868660000008758095374797498032_" gradientUnits="userSpaceOnUse" x1="-175.4156" y1="838.7238" x2="-150.1496" y2="831.3356" gradientTransform="matrix(4.5795 0 0 4.5795 1058.338 -3464.3936)">
		<stop  offset="0" style="stop-color:#CC1953"/>
		<stop  offset="1" style="stop-color:#241284"/>
	</linearGradient>
	<path style="fill-rule:evenodd;clip-rule:evenodd;fill:url(#SVGID_00000053530813785212868660000008758095374797498032_);" d="
		M259.2,328.2h107.2V391H259.2V328.2z"/>
	
		<linearGradient id="SVGID_00000163787473082791579350000016517519111652502401_" gradientUnits="userSpaceOnUse" x1="-203.6574" y1="830.4649" x2="-178.5734" y2="839.5945" gradientTransform="matrix(4.5795 0 0 4.5795 1058.338 -3464.3936)">
		<stop  offset="3.000000e-03" style="stop-color:#FFCC00"/>
		<stop  offset="1" style="stop-color:#CE1938"/>
	</linearGradient>
	<path style="fill-rule:evenodd;clip-rule:evenodd;fill:url(#SVGID_00000163787473082791579350000016517519111652502401_);" d="
		M129.5,328.2h107.2V391H129.5L129.5,328.2z"/>
	
		<linearGradient id="SVGID_00000112600813657561729880000014711577155693576833_" gradientUnits="userSpaceOnUse" x1="-200.8543" y1="807.045" x2="-181.3765" y2="825.019" gradientTransform="matrix(4.5795 0 0 4.5795 1058.338 -3464.3936)">
		<stop  offset="3.000000e-03" style="stop-color:#FFD100"/>
		<stop  offset="1" style="stop-color:#FD5A22"/>
	</linearGradient>
	<path style="fill-rule:evenodd;clip-rule:evenodd;fill:url(#SVGID_00000112600813657561729880000014711577155693576833_);" d="
		M129.5,241.2h107.2V304H129.5L129.5,241.2z"/>
</g>
<path class="st0" d="M2415.2,266v9.2h84.8v-24.8c0-55.5-34.8-95.8-93-95.8c-37.5,0-64,18.2-77.8,48.5v-48.5h-87.5V478h87.5V269.7
	c0-33,17.8-51.2,45-51.2C2399.2,218.7,2415.2,242.2,2415.2,266L2415.2,266z"/>
</svg>
